<svg id="search" xmlns="http://www.w3.org/2000/svg" width="19.793" height="20.248" viewBox="0 0 19.793 20.248">
  <path id="Ellipse_2_Stroke_" data-name="Ellipse 2 (Stroke)" d="M38.548,144.477a6.929,6.929,0,1,0-6.929-6.929A6.929,6.929,0,0,0,38.548,144.477Zm0,1.619A8.548,8.548,0,1,0,30,137.548,8.548,8.548,0,0,0,38.548,146.1Z" transform="translate(-30 -129)" fill="#3b3b3d" fill-rule="evenodd"/>
  <path id="Line_3_Stroke_" data-name="Line 3 (Stroke)" d="M49.209,149.1a.5.5,0,0,1-.707,0l-5.475-5.475,1.145-1.145,5.475,5.475a.5.5,0,0,1,0,.707Z" transform="translate(-30 -129)" fill="#3b3b3d" fill-rule="evenodd"/>
</svg>
